<?xml version="1.0" standalone="no"?>
<!DOCTYPE svg PUBLIC "-//W3C//DTD SVG 20010904//EN"
 "http://www.w3.org/TR/2001/REC-SVG-20010904/DTD/svg10.dtd">
<svg version="1.0" xmlns="http://www.w3.org/2000/svg"
 width="512.000000pt" height="512.000000pt" viewBox="0 0 512.000000 512.000000"
 preserveAspectRatio="xMidYMid meet">
<metadata>
Created by potrace 1.11, written by Peter Selinger 2001-2013
</metadata>
<g transform="translate(0.000000,512.000000) scale(0.100000,-0.100000)"
fill="#000000" stroke="none">
<path d="M199 5091 l-29 -29 0 -2361 0 -2361 -50 0 c-58 0 -109 -22 -112 -48
-6 -68 -4 -73 24 -97 23 -20 41 -25 84 -25 l54 0 0 -47 c0 -59 17 -94 54 -111
33 -17 69 -9 96 20 15 17 20 35 20 80 l0 58 2355 0 c1295 0 2358 0 2361 -1 3
-1 18 11 34 26 20 19 27 35 26 61 -1 38 -37 84 -65 84 -16 0 -17 114 -16 1713
l0 1714 33 52 c17 29 32 55 32 59 0 4 -21 20 -48 36 -26 17 -56 36 -68 43 -23
15 -14 27 -271 -372 -36 -55 -97 -150 -136 -211 -40 -60 -105 -162 -146 -225
-41 -63 -93 -143 -116 -179 -24 -36 -82 -126 -129 -200 -48 -74 -91 -135 -95
-135 -4 0 -114 142 -244 315 -130 173 -243 324 -252 335 -18 23 -12 30 -115
-130 -45 -71 -121 -188 -167 -260 -209 -322 -580 -896 -639 -987 -16 -26 -34
-44 -39 -40 -6 4 -109 140 -230 302 -223 299 -234 314 -270 357 l-21 25 -29
-64 c-16 -34 -53 -115 -83 -178 -30 -63 -67 -143 -83 -177 -80 -173 -112 -243
-202 -433 -19 -41 -49 -104 -65 -140 -104 -225 -133 -282 -141 -274 -5 5 -86
113 -180 239 -95 127 -177 237 -184 245 -7 8 -34 45 -61 83 -28 37 -51 67 -52
67 -1 0 -158 -156 -348 -346 l-346 -346 0 1910 c0 1427 -2 1917 -11 1936 -11
23 -53 46 -86 46 -8 0 -28 -13 -44 -29z"/>
<path d="M590 4860 c-63 -13 -92 -67 -66 -119 21 -39 36 -44 159 -46 102 -2
111 -1 138 22 22 19 29 33 29 59 0 41 -36 83 -72 85 -80 4 -167 4 -188 -1z"/>
<path d="M587 4522 c-56 -15 -86 -66 -68 -115 16 -42 59 -57 160 -57 131 0
170 20 171 88 0 39 -37 82 -72 83 -120 3 -180 3 -191 1z"/>
<path d="M552 4165 c-53 -38 -47 -124 10 -144 41 -15 214 -14 241 1 50 26 62
87 28 129 -18 22 -27 24 -138 27 -97 3 -122 0 -141 -13z"/>
<path d="M544 3816 c-21 -18 -28 -32 -28 -61 0 -29 7 -43 28 -61 25 -22 36
-24 132 -24 140 0 175 17 174 88 -1 63 -42 82 -174 82 -96 0 -107 -2 -132 -24z"/>
<path d="M557 3484 c-35 -19 -49 -53 -37 -94 15 -53 32 -59 163 -60 112 0 119
1 142 25 44 43 29 112 -29 135 -43 16 -206 12 -239 -6z"/>
<path d="M559 3144 c-37 -19 -55 -66 -40 -103 21 -50 59 -58 254 -52 69 2 102
94 51 142 -23 22 -34 24 -132 26 -74 1 -115 -3 -133 -13z"/>
<path d="M563 2805 c-40 -17 -60 -65 -44 -104 20 -46 50 -55 173 -55 108 1
112 1 135 28 31 37 31 85 -2 116 -22 21 -35 23 -129 25 -65 1 -115 -2 -133
-10z"/>
</g>
</svg>
